<?xml version="1.0" encoding="UTF-8" standalone="no"?>
<!-- Created with Inkscape (http://www.inkscape.org/) -->

<svg
   width="600"
   height="600"
   viewBox="0 0 158.75 158.75"
   version="1.1"
   id="svg1"
   xml:space="preserve"
   inkscape:export-filename="AMAApp.jpg"
   inkscape:export-xdpi="96"
   inkscape:export-ydpi="96"
   xmlns:inkscape="http://www.inkscape.org/namespaces/inkscape"
   xmlns:sodipodi="http://sodipodi.sourceforge.net/DTD/sodipodi-0.dtd"
   xmlns="http://www.w3.org/2000/svg"
   xmlns:svg="http://www.w3.org/2000/svg"><sodipodi:namedview
     id="namedview1"
     pagecolor="#ffffff"
     bordercolor="#000000"
     borderopacity="0.25"
     inkscape:showpageshadow="2"
     inkscape:pageopacity="0.0"
     inkscape:pagecheckerboard="0"
     inkscape:deskcolor="#d1d1d1"
     inkscape:document-units="mm" /><defs
     id="defs1"><clipPath
       id="b7be12b1f6"><path
         d="m 377.00781,1.738281 h 371.25 V 372.98828 h -371.25 z m 0,0"
         clip-rule="nonzero"
         id="path1" /></clipPath></defs><g
     inkscape:label="Sloj 1"
     inkscape:groupmode="layer"
     id="layer1"><g
       id="g3"
       transform="matrix(0.35277778,0,0,0.35277778,-119.04662,13.277398)"><g
         clip-path="url(#b7be12b1f6)"
         id="g2"><path
           fill="#0097b2"
           d="m 481.94531,292.93359 80.32422,-80.32812 80.32813,80.32812 -80.32813,80.32422 z m 0,-210.87109 80.32422,-80.324219 80.32813,80.324219 -80.32813,80.32812 z M 587.49219,187.5 667.70703,107.17188 748.03125,187.5 667.70703,267.82422 Z m -210.92578,0 80.26953,-80.32812 80.32812,80.32812 -80.32812,80.32422 z m 0,0"
           fill-opacity="1"
           fill-rule="nonzero"
           id="path2" /></g><path
         stroke-linecap="butt"
         transform="matrix(0.75,0,0,0.75,369.33397,84.383997)"
         fill="none"
         stroke-linejoin="miter"
         d="M 7.59637,116.99843 38.809913,-17.668247 93.085958,-19.621372 124.2995,116.99843 H 84.315125 L 79.601583,91.029677 H 52.294289 L 47.622414,116.99843 Z M 76.882832,71.727592 70.830749,33.274465 h -9.770834 l -6.052084,38.453127 z m 0,0"
         stroke="#000000"
         stroke-width="46.3595"
         stroke-opacity="1"
         stroke-miterlimit="4"
         id="path3" /><path
         stroke-linecap="butt"
         transform="matrix(0.75,0,0,0.75,369.33397,84.383997)"
         fill="none"
         stroke-linejoin="miter"
         d="m 129.80992,-17.668247 49.75,-1.953125 c 0,-0.385417 0.52604,2.15625 1.57292,7.625 1.04687,5.463542 2.41146,12.671876 4.09896,21.63021 1.68229,9.119792 3.63541,19.333335 5.85937,30.645835 2.06771,11.468751 4.27604,22.791669 6.625,33.973961 l 15.25,-91.921881 52.65626,-1.953125 6.47916,136.619802 h -39.83854 l -6.43229,-85.869799 -11.15104,83.916669 -23.96876,1.38542 -21.30208,-85.302089 -1.57292,85.869799 h -41.55208 z m 0,0"
         stroke="#000000"
         stroke-width="46.3595"
         stroke-opacity="1"
         stroke-miterlimit="4"
         id="path4" /><path
         stroke-linecap="butt"
         transform="matrix(0.75,0,0,0.75,369.33397,84.383997)"
         fill="none"
         stroke-linejoin="miter"
         d="m 274.04951,116.99843 31.21355,-134.666677 54.27604,-1.953125 31.21354,136.619802 h -39.98437 l -4.71354,-25.968753 h -27.3073 l -4.67187,25.968753 z m 69.28647,-45.270838 -6.05209,-38.453127 h -9.77083 l -6.05209,38.453127 z m 0,0"
         stroke="#000000"
         stroke-width="46.3595"
         stroke-opacity="1"
         stroke-miterlimit="4"
         id="path5" /><path
         stroke-linecap="butt"
         transform="matrix(0.75,0,0,0.75,369.33397,84.383997)"
         fill="none"
         stroke-linejoin="miter"
         d="m 390.78389,116.99843 31.21355,-134.666677 54.27604,-1.953125 31.21355,136.619802 h -39.98438 l -4.71354,-25.968753 h -27.3073 l -4.67187,25.968753 z m 69.28647,-45.270838 -6.05209,-38.453127 h -9.77083 l -6.05208,38.453127 z m 0,0"
         stroke="#000000"
         stroke-width="46.3595"
         stroke-opacity="1"
         stroke-miterlimit="4"
         id="path6" /><path
         stroke-linecap="butt"
         transform="matrix(0.75,0,0,0.75,369.33397,84.383997)"
         fill="none"
         stroke-linejoin="miter"
         d="m 80.585958,240.94114 c 0,-6.51041 1.432291,-10.9427 4.291667,-13.29166 2.729166,-2.35417 7.416667,-3.52604 14.057292,-3.52604 4.161463,0 7.416663,0.45833 9.770833,1.3802 2.22396,1.04688 3.84375,2.34896 4.85938,3.90625 1.04687,1.5573 1.69791,3.3073 1.95312,5.2448 0.28646,1.96875 0.42709,3.92187 0.42709,5.85937 0,2.22396 -0.14063,4.38542 -0.42709,6.47917 -0.38021,2.06771 -1.16146,3.875 -2.33333,5.43229 -1.17708,1.6875 -2.92188,2.98958 -5.24479,3.91146 -2.47917,1.04687 -5.85938,1.57292 -10.151046,1.57292 -3.776042,0 -6.781251,-0.52605 -9.005209,-1.57292 -2.317709,-0.92188 -4.067709,-2.22396 -5.239584,-3.91146 -1.177083,-1.55729 -1.953125,-3.36458 -2.338542,-5.43229 -0.411458,-1.96875 -0.619791,-3.98438 -0.619791,-6.05209 z m 0,0"
         stroke="#000000"
         stroke-width="46.3595"
         stroke-opacity="1"
         stroke-miterlimit="4"
         id="path7" /><path
         stroke-linecap="butt"
         transform="matrix(0.75,0,0,0.75,369.33397,84.383997)"
         fill="none"
         stroke-linejoin="miter"
         d="m 160.82555,156.40468 -0.95313,17.96354 c 4.79688,-6.13021 10.45313,-10.75 16.96354,-13.86458 6.38542,-2.98438 12.3125,-4.47917 17.77605,-4.47917 5.58854,0 10.21354,1.42709 13.86458,4.28646 3.49479,2.85938 6.35417,6.4375 8.57813,10.72396 2.0677,4.41667 3.55729,9.16667 4.47916,14.25 0.79688,5.08333 1.19271,9.83333 1.19271,14.24479 0,7.4375 -0.39583,14.39584 -1.19271,20.875 -0.92187,6.51042 -2.74479,12.2448 -5.47916,17.20313 -2.72917,4.95313 -6.5573,8.86458 -11.48438,11.72396 -5.08333,2.85938 -11.78646,4.28646 -20.10938,4.28646 -7.30729,0 -15.63021,-1.17708 -24.96875,-3.52604 l 1.95313,41.17188 h -35.17188 l -0.56771,-131.95314 z m 10.77083,28.49479 c -3.14583,0.63542 -5.5625,1.41667 -7.24479,2.33855 -1.8125,0.92187 -3.11459,2.22395 -3.90625,3.90625 -0.79688,1.8125 -1.25521,4.08333 -1.38542,6.8125 -0.125,2.73437 -0.1875,6.26041 -0.1875,10.58333 0,4.28646 0.0625,7.98958 0.1875,11.09896 0.13021,3.11458 0.58854,5.71875 1.38542,7.81771 0.79166,2.0625 2.09375,3.61979 3.90625,4.67187 1.68229,1.04688 4.09896,1.57292 7.24479,1.57292 3.36458,0 5.95313,-0.52604 7.76563,-1.57292 1.71354,-1.05208 2.95312,-2.60937 3.71875,-4.67187 0.79166,-2.09896 1.2552,-4.70313 1.3802,-7.81771 0,-3.10938 0,-6.8125 0,-11.09896 0,-3.78125 0.0625,-7.16667 0.19271,-10.15104 0,-3.02084 -0.19271,-5.5625 -0.57291,-7.625 -0.41146,-2.09896 -1.13021,-3.73438 -2.14584,-4.91146 -1.17708,-1.01563 -3,-1.52083 -5.47916,-1.52083 -1.4323,0 -3.05209,0.1875 -4.85938,0.5677 z m 99.90626,-26.54166 -1.95834,24.02083 c 2.60938,-8.86458 6.38542,-15.44271 11.34375,-19.72917 4.92188,-4.16146 10.32292,-6.24479 16.20313,-6.24479 4.41667,0 8.05208,0.90625 10.91146,2.71875 2.85937,1.96875 5.13021,4.76563 6.8125,8.38542 1.71875,3.65104 2.89583,8.14583 3.53125,13.48437 0.66667,5.33855 0.93229,11.39063 0.80729,18.15626 l -37.3125,3.90625 c -0.25521,-4.41146 -0.57292,-7.92188 -0.95313,-10.53126 -0.41145,-2.60416 -1.98437,-3.90625 -4.71875,-3.90625 -1.68229,0 -4.08333,0.58855 -7.19271,1.76563 v 63.61459 h -33.97916 c 0,-11.59375 0,-22.92188 0,-33.97396 -0.125,-11.0573 -0.19271,-21 -0.19271,-29.83334 -0.125,-10.29167 -0.25,-20.125 -0.38021,-29.49479 z m 58.36979,48.98958 c 0,-6.09896 0.25521,-12.21354 0.76042,-18.34896 0.54167,-5.96875 2.23958,-11.5 5.09896,-16.58333 2.85937,-4.95313 7.42187,-9.05209 13.67708,-12.29167 6.09896,-3.27604 14.80729,-5.16146 26.11459,-5.67187 h 4.09896 c 10.80208,0 19.14062,1.61979 25.02083,4.85937 5.84375,3.40104 10.19792,7.64063 13.05729,12.72396 2.72917,5.20833 4.36459,10.86458 4.90625,16.96354 0.51042,6.26042 0.76042,12.25 0.76042,17.96875 0,6.38542 -0.39583,12.5625 -1.1875,18.53646 -0.76563,6.09896 -2.71875,11.5625 -5.86458,16.39063 -3.10938,4.82812 -7.85938,8.67708 -14.2448,11.53646 -6.35416,2.98437 -15.14062,4.47917 -26.35417,4.47917 -10.26041,0 -18.39583,-1.4948 -24.40104,-4.47917 -6.09896,-2.98958 -10.70312,-6.89584 -13.81771,-11.72396 -3.27083,-4.70313 -5.35416,-10.10417 -6.24479,-16.20313 -0.92187,-5.97396 -1.38021,-12.02604 -1.38021,-18.15625 z m 46.27084,-20.48958 c -3.14584,0.50521 -5.49479,1.15625 -7.05209,1.95312 -1.68229,0.92188 -2.85937,2.22396 -3.52604,3.90625 -0.76041,1.68229 -1.20833,3.82813 -1.33333,6.4323 -0.13021,2.60416 -0.19271,5.98958 -0.19271,10.15104 0,4.03646 0.0625,7.54687 0.19271,10.53125 0.125,2.98437 0.57292,5.46354 1.33333,7.43229 0.66667,2.06771 1.84375,3.5625 3.52604,4.47917 1.5573,1.05208 3.90625,1.57291 7.05209,1.57291 3.23958,0 5.70312,-0.52083 7.38542,-1.57291 1.71875,-0.91667 2.95833,-2.41146 3.71875,-4.47917 0.79687,-1.96875 1.2552,-4.44792 1.3802,-7.43229 0,-2.98438 0,-6.49479 0,-10.53125 0,-3.65104 0.0677,-6.91146 0.19271,-9.77084 0,-2.85937 -0.19271,-5.25521 -0.57291,-7.19271 -0.41146,-1.96875 -1.20834,-3.47916 -2.38021,-4.52604 -1.14584,-1.02083 -2.89063,-1.52604 -5.24479,-1.52604 -1.17188,0 -2.66667,0.1875 -4.47917,0.57292 z m 0,0"
         stroke="#000000"
         stroke-width="46.3595"
         stroke-opacity="1"
         stroke-miterlimit="4"
         id="path8" /><g
         fill="#ff3131"
         fill-opacity="1"
         id="g11"><g
           transform="translate(373.56444,172.13399)"
           id="g10"><g
             id="g9"><path
               d="m 1.46875,0 23.421875,-101.01563 40.6875,-1.45312 L 89,0 H 59 l -3.515625,-19.46875 h -20.5 L 31.46875,0 Z M 53.4375,-33.96875 48.890625,-62.796875 h -7.3125 L 37.03125,-33.96875 Z m 0,0"
               id="path9" /></g></g></g><g
         fill="#ff5757"
         fill-opacity="1"
         id="g14"><g
           transform="translate(461.11522,172.13399)"
           id="g13"><g
             id="g12"><path
               d="m 5.5625,-101.01563 37.328125,-1.45312 c 0,-0.28906 0.390625,1.60937 1.171875,5.703125 0.78125,4.105469 1.804688,9.523437 3.078125,16.25 1.269531,6.835937 2.734375,14.496094 4.390625,22.984375 1.5625,8.585938 3.21875,17.074219 4.96875,25.46875 l 11.421875,-68.95313 39.531255,-1.45312 L 112.28125,0 H 82.421875 L 77.59375,-64.40625 69.25,-1.46875 51.234375,-0.4375 35.28125,-64.40625 34.109375,0 h -31.1875 z m 0,0"
               id="path11" /></g></g></g><g
         fill="#0cc0df"
         fill-opacity="1"
         id="g17"><g
           transform="translate(573.40427,172.13399)"
           id="g16"><g
             id="g15"><path
               d="m 1.46875,0 23.421875,-101.01563 40.6875,-1.45312 L 89,0 H 59 l -3.515625,-19.46875 h -20.5 L 31.46875,0 Z M 53.4375,-33.96875 48.890625,-62.796875 h -7.3125 L 37.03125,-33.96875 Z m 0,0"
               id="path14" /></g></g></g><g
         fill="#0097b2"
         fill-opacity="1"
         id="g20"><g
           transform="translate(660.95505,172.13399)"
           id="g19"><g
             id="g18"><path
               d="m 1.46875,0 23.421875,-101.01563 40.6875,-1.45312 L 89,0 H 59 l -3.515625,-19.46875 h -20.5 L 31.46875,0 Z M 53.4375,-33.96875 48.890625,-62.796875 h -7.3125 L 37.03125,-33.96875 Z m 0,0"
               id="path17" /></g></g></g><g
         fill="#ffde59"
         fill-opacity="1"
         id="g23"><g
           transform="translate(427.88084,274.88398)"
           id="g22"><g
             id="g21"><path
               d="m 1.90625,-9.8125 c 0,-4.875 1.070312,-8.191406 3.21875,-9.953125 2.050781,-1.75 5.5625,-2.625 10.53125,-2.625 3.125,0 5.566406,0.339844 7.328125,1.015625 1.65625,0.78125 2.875,1.761719 3.65625,2.9375 0.78125,1.167969 1.269531,2.480469 1.46875,3.9375 0.195313,1.46875 0.296875,2.9375 0.296875,4.40625 0,1.65625 -0.101562,3.265625 -0.296875,4.828125 -0.292969,1.5625 -0.882813,2.929687 -1.765625,4.09375 C 25.46875,0.0976562 24.148438,1.070312 22.390625,1.75 20.535156,2.53125 18,2.921875 14.78125,2.921875 11.957031,2.921875 9.710938,2.53125 8.046875,1.75 6.296875,1.070312 4.976562,0.0976562 4.09375,-1.171875 3.21875,-2.335938 2.632812,-3.703125 2.34375,-5.265625 2.050781,-6.734375 1.90625,-8.25 1.90625,-9.8125 Z m 0,0"
               id="path20" /></g></g></g><g
         fill="#7ed957"
         fill-opacity="1"
         id="g26"><g
           transform="translate(462.14647,274.88398)"
           id="g25"><g
             id="g24"><path
               d="m 27.8125,-73.203125 -0.734375,13.46875 C 30.691406,-64.316406 34.9375,-67.78125 39.8125,-70.125 c 4.78125,-2.238281 9.222656,-3.359375 13.328125,-3.359375 4.195313,0 7.660156,1.074219 10.390625,3.21875 2.632812,2.148437 4.78125,4.828125 6.4375,8.046875 1.5625,3.324219 2.6875,6.886719 3.375,10.6875 0.582031,3.8125 0.875,7.375 0.875,10.6875 0,5.5625 -0.292969,10.789062 -0.875,15.671875 -0.6875,4.875 -2.054688,9.167969 -4.09375,12.875 -2.054688,3.710937 -4.933594,6.636719 -8.640625,8.78125 -3.8125,2.148437 -8.839844,3.21875 -15.078125,3.21875 -5.46875,0 -11.714844,-0.875 -18.734375,-2.625 L 28.25,27.953125 H 1.90625 L 1.46875,-71 Z m 8.046875,21.375 c -2.335937,0.492187 -4.136719,1.078125 -5.40625,1.765625 -1.367187,0.679688 -2.34375,1.652344 -2.9375,2.921875 -0.585937,1.367187 -0.921875,3.074219 -1.015625,5.125 -0.105469,2.054687 -0.15625,4.6875 -0.15625,7.90625 0,3.21875 0.05078,6 0.15625,8.34375 0.09375,2.34375 0.429688,4.296875 1.015625,5.859375 0.59375,1.5625 1.570313,2.734375 2.9375,3.515625 1.269531,0.78125 3.070313,1.171875 5.40625,1.171875 2.539063,0 4.492187,-0.390625 5.859375,-1.171875 1.269531,-0.78125 2.195312,-1.953125 2.78125,-3.515625 0.582031,-1.5625 0.925781,-3.515625 1.03125,-5.859375 0,-2.34375 0,-5.125 0,-8.34375 0,-2.832031 0.04687,-5.367187 0.140625,-7.609375 0,-2.25 -0.148437,-4.15625 -0.4375,-5.71875 -0.292969,-1.550781 -0.828125,-2.769531 -1.609375,-3.65625 -0.875,-0.78125 -2.242188,-1.171875 -4.09375,-1.171875 -1.074219,0 -2.296875,0.148437 -3.671875,0.4375 z m 0,0"
               id="path23" /></g></g></g><g
         fill="#7ed957"
         fill-opacity="1"
         id="g29"><g
           transform="translate(542.2224,274.88398)"
           id="g28"><g
             id="g27"><path
               d="M 30.734375,-71.734375 29.28125,-53.71875 c 1.945312,-6.644531 4.773438,-11.578125 8.484375,-14.796875 3.707031,-3.125 7.757813,-4.6875 12.15625,-4.6875 3.3125,0 6.039063,0.6875 8.1875,2.0625 2.15625,1.460937 3.863281,3.558594 5.125,6.296875 1.269531,2.730469 2.148437,6.09375 2.640625,10.09375 0.488281,4 0.6875,8.539062 0.59375,13.609375 L 38.5,-38.203125 c -0.199219,-3.320313 -0.445312,-5.957031 -0.734375,-7.90625 -0.292969,-1.957031 -1.464844,-2.9375 -3.515625,-2.9375 -1.261719,0 -3.0625,0.445313 -5.40625,1.328125 V 0 H 3.359375 c 0,-8.6875 0,-17.175781 0,-25.46875 C 3.265625,-33.769531 3.21875,-41.238281 3.21875,-47.875 3.125,-55.582031 3.023438,-62.945312 2.921875,-69.96875 Z m 0,0"
               id="path26" /></g></g></g><g
         fill="#7ed957"
         fill-opacity="1"
         id="g32"><g
           transform="translate(613.80767,274.88398)"
           id="g31"><g
             id="g30"><path
               d="m 2.921875,-34.984375 c 0,-4.59375 0.195313,-9.179687 0.59375,-13.765625 0.382813,-4.488281 1.648437,-8.632812 3.796875,-12.4375 2.15625,-3.707031 5.570312,-6.78125 10.25,-9.21875 4.59375,-2.445312 11.132812,-3.863281 19.625,-4.25 H 40.25 c 8.101562,0 14.351562,1.21875 18.75,3.65625 4.382812,2.542969 7.648438,5.714844 9.796875,9.515625 2.050781,3.90625 3.273437,8.152344 3.671875,12.734375 0.382812,4.6875 0.578125,9.179688 0.578125,13.46875 0,4.78125 -0.292969,9.417969 -0.875,13.90625 C 71.585938,-16.789062 70.125,-12.691406 67.78125,-9.078125 65.4375,-5.460938 61.875,-2.582031 57.09375,-0.4375 52.3125,1.800781 45.722656,2.921875 37.328125,2.921875 c -7.710937,0 -13.808594,-1.121094 -18.296875,-3.359375 -4.585938,-2.25 -8.046875,-5.175781 -10.390625,-8.78125 -2.4375,-3.519531 -4,-7.570312 -4.6875,-12.15625 -0.6875,-4.488281 -1.03125,-9.023438 -1.03125,-13.609375 z m 34.703125,-15.375 c -2.34375,0.398437 -4.101562,0.886719 -5.265625,1.46875 -1.273437,0.679687 -2.152344,1.652344 -2.640625,2.921875 -0.585938,1.273438 -0.929688,2.882812 -1.03125,4.828125 -0.09375,1.960937 -0.140625,4.496094 -0.140625,7.609375 0,3.03125 0.04687,5.667969 0.140625,7.90625 0.101562,2.25 0.445312,4.105469 1.03125,5.5625 0.488281,1.5625 1.367188,2.6875 2.640625,3.375 1.164063,0.78125 2.921875,1.171875 5.265625,1.171875 2.4375,0 4.289062,-0.390625 5.5625,-1.171875 1.269531,-0.6875 2.195312,-1.8125 2.78125,-3.375 0.582031,-1.457031 0.921875,-3.3125 1.015625,-5.5625 0,-2.238281 0,-4.875 0,-7.90625 0,-2.726562 0.05078,-5.164062 0.15625,-7.3125 0,-2.144531 -0.148437,-3.953125 -0.4375,-5.421875 -0.292969,-1.457031 -0.882813,-2.578125 -1.765625,-3.359375 -0.875,-0.78125 -2.195312,-1.171875 -3.953125,-1.171875 -0.875,0 -1.996094,0.148437 -3.359375,0.4375 z m 0,0"
               id="path29" /></g></g></g></g></g></svg>
